<svg width="405" height="409" viewBox="0 0 405 409" fill="none" xmlns="http://www.w3.org/2000/svg">
<g filter="url(#filter0_d_1405_516)">
<path d="M352.135 239.68C350.051 249.449 346.592 258.872 341.862 267.67C337.001 276.474 330.955 284.571 323.895 291.735C309.519 306.123 291.314 316.085 271.445 320.435C261.589 322.62 251.477 323.422 241.4 322.816C231.345 322.067 221.44 319.942 211.963 316.5C193.006 309.646 176.448 297.435 164.301 281.347C170.93 288.672 178.459 295.13 186.71 300.567C188.813 301.834 190.773 303.34 192.962 304.44L199.443 307.906L206.158 310.865C208.404 311.844 210.774 312.508 213.055 313.339C222.283 316.339 231.849 318.171 241.532 318.792C251.262 319.251 261.009 318.365 270.498 316.161C289.621 311.962 307.257 302.684 321.551 289.305C335.896 275.711 346.439 258.604 352.135 239.68Z" fill="white" stroke="white" stroke-linecap="round" stroke-linejoin="round"/>
</g>
<g filter="url(#filter1_d_1405_516)">
<path d="M333.031 290.673C327.875 299.224 321.548 307.011 314.233 313.809C306.763 320.549 298.406 326.239 289.397 330.72C271.138 339.69 250.682 343.213 230.475 340.867C210.273 338.668 191.145 330.643 175.421 317.771C159.72 305.133 148.025 288.21 141.754 269.055C145.651 278.137 150.683 286.688 156.731 294.504C158.291 296.405 159.667 298.443 161.312 300.202L166.317 305.531L171.747 310.492C173.549 312.137 175.568 313.523 177.452 315.074C185.274 320.897 193.795 325.717 202.817 329.422C211.851 333.024 221.339 335.362 231.013 336.373C250.456 338.623 270.145 335.578 288 327.56C305.959 319.384 321.479 306.671 333.031 290.673Z" fill="white" stroke="white" stroke-linecap="round" stroke-linejoin="round"/>
</g>
<g filter="url(#filter2_d_1405_516)">
<path d="M296.748 332.377C289.085 338.748 280.571 344.019 271.451 348.037C262.207 351.999 252.46 354.669 242.487 355.97C222.284 358.527 201.772 355.217 183.397 346.435C164.987 337.821 149.467 324.058 138.712 306.81C127.998 289.748 122.463 269.943 122.78 249.798C123.519 259.657 125.499 269.382 128.674 278.744C129.535 281.021 130.166 283.406 131.204 285.644L134.195 292.351L137.704 298.797C138.873 300.945 140.329 302.914 141.629 304.972C147.121 313.03 153.611 320.361 160.944 326.789C168.314 333.146 176.521 338.461 185.336 342.587C203.002 351.024 222.618 354.537 242.114 352.758C261.792 350.847 280.627 343.82 296.748 332.377Z" fill="white" stroke="white" stroke-linecap="round" stroke-linejoin="round"/>
</g>
<g filter="url(#filter3_d_1405_516)">
<path d="M249.037 360.523C239.713 364.102 229.934 366.36 219.984 367.231C209.947 367.977 199.854 367.339 189.99 365.333C170.049 361.193 151.719 351.406 137.185 337.141C129.93 330.061 123.705 321.999 118.692 313.189C113.8 304.349 110.147 294.878 107.837 285.042C103.223 265.424 104.391 244.888 111.2 225.919C108.703 235.483 107.421 245.323 107.384 255.207C107.458 257.702 107.285 260.179 107.533 262.687L108.192 270.004L109.404 277.234C109.825 279.753 110.565 281.996 111.122 284.351C113.689 293.758 117.45 302.799 122.313 311.252C127.207 319.662 133.238 327.356 140.235 334.117C154.182 347.82 171.569 357.509 190.56 362.161C209.86 366.741 230.024 366.177 249.037 360.523Z" fill="white" stroke="white" stroke-linecap="round" stroke-linejoin="round"/>
</g>
<g filter="url(#filter4_d_1405_516)">
<path d="M195.17 372.275C185.187 372.64 175.203 371.606 165.506 369.206C155.779 366.643 146.45 362.757 137.78 357.657C120.326 347.261 106.229 332.066 97.1687 313.883C92.6017 304.841 89.3361 295.2 87.4691 285.244C85.6992 275.301 85.3189 265.16 86.3393 255.112C88.3231 235.051 96.1003 216 108.723 200.282C103.241 208.513 98.8286 217.408 95.5927 226.753C94.8744 229.193 93.9008 231.365 93.3594 233.767L91.5915 240.889L90.3884 248.125C90.0169 250.589 90.0418 253.081 89.7038 255.422C89.0901 265.149 89.7124 274.914 91.5558 284.484C93.4519 294.032 96.6601 303.273 101.089 311.942C109.841 329.45 123.163 344.266 139.646 354.824C156.315 365.384 175.457 371.401 195.17 372.275Z" fill="white" stroke="white" stroke-linecap="round" stroke-linejoin="round"/>
</g>
<g filter="url(#filter5_d_1405_516)">
<path d="M140.922 366.382C131.357 363.491 122.248 359.267 113.863 353.834C105.489 348.264 97.9234 341.569 91.3769 333.936C78.2036 318.434 69.7712 299.468 67.0868 279.304C65.6967 269.267 65.7382 259.084 67.2097 249.061C68.7672 239.08 71.7006 229.364 75.9262 220.19C84.3377 201.877 97.8736 186.392 114.897 175.608C107.045 181.611 99.9895 188.589 93.9001 196.374C92.4414 198.363 90.7948 200.191 89.5043 202.267L85.5124 208.436L82.0465 214.916C80.9011 217.052 80.0429 219.357 79.0907 221.581C75.3441 230.582 72.7595 240.023 71.3993 249.677C70.1029 259.324 70.1397 269.104 71.5083 278.741C74.1063 298.14 81.9003 316.476 94.0654 331.808C106.389 347.235 122.546 359.157 140.922 366.382Z" fill="white" stroke="white" stroke-linecap="round" stroke-linejoin="round"/>
</g>
<g filter="url(#filter6_d_1405_516)">
<path d="M91.7747 342.783C83.6734 336.939 76.4321 329.988 70.2624 322.132C64.1469 314.136 59.1654 305.334 55.4593 295.975C47.9894 277.005 46.153 256.284 50.1709 236.296C54.0138 216.321 63.5906 197.896 77.7315 183.273C91.6233 168.624 109.482 158.34 129.124 153.677C119.746 156.801 110.803 161.103 102.509 166.481C100.518 167.886 98.344 169.078 96.4422 170.638L90.6696 175.214L85.3415 180.194C83.5567 181.863 82.0058 183.746 80.3132 185.52C73.8531 192.82 68.343 200.911 63.9146 209.595C59.5376 218.289 56.3771 227.544 54.5219 237.099C50.6712 256.301 52.0853 276.187 58.6143 294.651C65.2684 313.319 76.7022 329.915 91.7747 342.783Z" fill="white" stroke="white" stroke-linecap="round" stroke-linejoin="round"/>
</g>
<g filter="url(#filter7_d_1405_516)">
<path d="M53.1001 303.091C47.3415 294.963 42.7504 286.069 39.461 276.667C36.3009 267.128 34.4814 257.197 34.055 247.157C33.1717 226.836 38.159 206.689 48.4208 189.127C53.4939 180.358 59.779 172.348 67.0902 165.335C74.4518 158.414 82.7386 152.55 91.7133 147.91C109.568 138.623 129.734 134.714 149.767 136.657C139.892 136.557 130.044 137.726 120.467 140.135C118.103 140.817 115.683 141.245 113.38 142.13L106.424 144.407L99.6934 147.372C97.4829 148.364 95.3824 149.561 93.2306 150.78C84.7482 155.584 76.9092 161.444 69.9011 168.221C62.9488 175.036 56.9698 182.779 52.1331 191.229C42.2714 208.137 37.1493 227.388 37.3055 246.961C37.5951 266.727 43.0395 286.075 53.1001 303.091Z" fill="white" stroke="white" stroke-linecap="round" stroke-linejoin="round"/>
</g>
<g filter="url(#filter8_d_1405_516)">
<path d="M28.8633 253.368C26.0514 243.783 24.6003 233.85 24.5527 223.861C24.6745 213.8 26.1694 203.802 28.996 194.144C34.7586 174.652 45.9928 157.221 61.3653 143.922C76.6772 130.529 95.552 121.875 115.692 119.013C135.63 116.02 156.008 118.88 174.35 127.248C165.031 123.951 155.329 121.859 145.48 121.021C143.003 120.848 140.537 120.501 138.047 120.501L130.576 120.527L123.261 121.16C120.757 121.359 118.427 121.918 116.037 122.274C106.448 124.061 97.1259 127.066 88.2977 131.215C79.5202 135.406 71.3547 140.774 64.0263 147.171C49.2783 160.012 38.2624 176.59 32.1368 195.161C25.9943 213.947 24.8658 234.012 28.8633 253.368Z" fill="white" stroke="white" stroke-linecap="round" stroke-linejoin="round"/>
</g>
<g filter="url(#filter9_d_1405_516)">
<path d="M21.4746 198.872C21.9192 188.897 23.774 179.034 26.9838 169.579C30.3327 160.087 34.9741 151.104 40.7771 142.881C52.5693 126.308 68.8765 113.473 87.7568 105.905C106.599 98.2558 127.256 96.2405 147.222 100.104C167.084 103.728 185.464 113.05 200.122 126.934C192.37 120.807 183.878 115.679 174.847 111.671C172.57 110.765 170.384 109.616 168.045 108.88L161.089 106.526L153.969 104.734C151.521 104.139 149.048 103.892 146.764 103.433C137.112 102.021 127.32 101.838 117.622 102.889C107.961 103.992 98.5 106.422 89.5044 110.111C71.3095 117.346 55.4066 129.361 43.4753 144.887C31.5549 160.653 23.9698 179.265 21.4746 198.872Z" fill="white" stroke="white" stroke-linecap="round" stroke-linejoin="round"/>
</g>
<g filter="url(#filter10_d_1405_516)">
<path d="M31.7285 145.32C35.4343 136.033 40.4276 127.313 46.5618 119.417C52.7904 111.517 60.0926 104.527 68.2564 98.6496C84.7902 86.7937 104.39 79.9522 124.71 78.9436C145.02 77.7494 165.238 82.5031 182.887 92.6225C200.412 102.537 214.694 117.311 224.008 135.161C218.67 126.845 212.3 119.238 205.05 112.523C203.195 110.924 201.503 109.137 199.537 107.68L193.728 103.166L187.559 99.1739C185.511 97.8356 183.294 96.7842 181.161 95.5893C172.497 91.1235 163.303 87.7701 153.799 85.6087C144.294 83.5544 134.553 82.8146 124.846 83.41C105.29 84.3976 86.3647 90.6535 70.0729 101.516C53.6839 112.516 40.4633 127.619 31.7285 145.32Z" fill="white" stroke="white" stroke-linecap="round" stroke-linejoin="round"/>
</g>
<g filter="url(#filter11_d_1405_516)">
<path d="M59.9727 98.3259C66.4595 90.7361 73.9811 84.0958 82.3166 78.6001C90.7806 73.1551 99.9595 68.9116 109.591 65.9915C129.075 60.1613 149.826 60.0567 169.368 65.6898C188.963 71.1694 206.539 82.2352 219.952 97.5365C233.357 112.592 242.113 131.21 245.16 151.137C242.831 141.546 239.295 132.288 234.637 123.586C233.392 121.458 232.452 119.226 231.002 117.182L226.949 111.048L222.373 105.275C220.864 103.352 219.092 101.634 217.467 99.9523C210.74 92.8996 203.138 86.7367 194.846 81.6137C186.554 76.5674 177.612 72.6752 168.267 70.0447C149.456 64.6285 129.531 64.3965 110.599 69.3734C91.4826 74.432 74.0266 84.4147 59.9727 98.3259Z" fill="white" stroke="white" stroke-linecap="round" stroke-linejoin="round"/>
</g>
<g filter="url(#filter12_d_1405_516)">
<path d="M102.488 62.9651C111.089 57.8896 120.359 54.0456 130.028 51.5452C139.805 49.1677 149.863 48.1452 159.919 48.5063C180.244 49.3126 199.908 55.9423 216.572 67.6062C224.88 73.401 232.34 80.3251 238.737 88.1785C245.015 96.0926 250.176 104.831 254.077 114.149C261.859 132.746 264.087 153.199 260.491 173.035C261.385 163.195 261.033 153.282 259.441 143.531C258.937 141.131 258.735 138.677 258.054 136.313L256.237 129.19L253.834 122.249C253.023 119.952 251.907 117.757 250.969 115.501C246.876 106.656 241.684 98.3623 235.515 90.8165C229.296 83.3269 222.075 76.7308 214.054 71.2146C198.019 59.9926 179.253 53.3043 159.734 51.8547C140.009 50.4911 120.271 54.3217 102.488 62.9651Z" fill="white" stroke="white" stroke-linecap="round" stroke-linejoin="round"/>
</g>
<g filter="url(#filter13_d_1405_516)">
<path d="M154.051 42.7377C163.836 40.7403 173.852 40.1167 183.809 40.8847C193.826 41.819 203.666 44.1155 213.061 47.7107C231.98 55.0861 248.381 67.7451 260.308 84.1793C272.4 100.541 279.469 120.068 280.654 140.379C282.016 160.481 277.507 180.545 267.677 198.132C271.726 189.123 274.615 179.637 276.274 169.9C276.596 167.434 277.191 164.985 277.339 162.506L277.859 155.073L277.858 147.602C277.833 145.111 277.511 142.599 277.348 140.297C276.336 130.601 274.118 121.069 270.743 111.924C267.286 102.828 262.599 94.249 256.814 86.4249C245.292 70.6045 229.713 58.1865 211.722 50.4804C193.501 42.92 173.621 40.2509 154.051 42.7377Z" fill="white" stroke="white" stroke-linecap="round" stroke-linejoin="round"/>
</g>
<g filter="url(#filter14_d_1405_516)">
<path d="M208.768 39.749C218.671 41.0735 228.338 43.7863 237.485 47.8074C246.695 51.878 255.296 57.2054 263.044 63.6374C278.582 76.7564 290.024 94.0633 296.009 113.499C302.124 132.924 302.47 153.707 297.004 173.325C291.728 192.777 280.921 210.279 265.894 223.71C272.652 216.504 278.467 208.469 283.202 199.798C284.303 197.584 285.618 195.51 286.547 193.26L289.508 186.52L291.887 179.565C292.68 177.131 293.138 174.848 293.777 172.476C295.979 162.982 296.97 153.246 296.725 143.502C296.419 133.764 294.772 124.114 291.833 114.825C286.072 96.115 275.368 79.3065 260.85 66.1731C246.097 52.9655 228.139 43.8548 208.768 39.749Z" fill="white" stroke="white" stroke-linecap="round" stroke-linejoin="round"/>
</g>
<g filter="url(#filter15_d_1405_516)">
<path d="M261.194 54.4448C270.141 58.823 278.431 64.4311 285.824 71.1062C293.175 77.9818 299.538 85.8422 304.732 94.4636C315.164 111.919 320.363 132.004 319.708 152.33C319.21 172.67 312.793 192.425 301.242 209.176C289.948 225.876 274.044 238.933 255.465 246.758C264.196 242.137 272.302 236.42 279.586 229.746C281.349 228.027 283.274 226.494 284.922 224.642L289.859 219.21L294.373 213.401C295.853 211.463 297.148 209.338 298.457 207.338C303.624 199.039 307.727 190.125 310.671 180.803C313.545 171.555 315.137 161.957 315.404 152.277C316.044 132.711 311.376 113.336 301.896 96.2074C292.201 78.9767 278.17 64.5799 261.194 54.4448Z" fill="white" stroke="white" stroke-linecap="round" stroke-linejoin="round"/>
</g>
<g filter="url(#filter16_d_1405_516)">
<path d="M305.709 86.8794C312.748 93.9677 318.749 102.015 323.535 110.784C328.234 119.64 331.703 129.097 333.843 138.893C338.048 158.795 336.437 179.487 329.202 198.499C325.615 208.016 320.695 216.978 314.593 225.114C308.477 233.158 301.272 240.314 293.187 246.375C277.079 258.495 257.799 265.674 237.688 267.044C247.483 265.485 257.041 262.69 266.131 258.725C268.347 257.659 270.671 256.827 272.798 255.606L279.243 252.098L285.377 248.07C287.413 246.718 289.268 245.105 291.214 243.622C298.797 237.511 305.566 230.454 311.356 222.622C317.09 214.767 321.713 206.16 325.096 197.042C332.04 178.742 333.919 158.909 330.531 139.632C327 120.184 318.443 101.998 305.709 86.8794Z" fill="white" stroke="white" stroke-linecap="round" stroke-linejoin="round"/>
</g>
<g filter="url(#filter17_d_1405_516)">
<path d="M337.513 132.141C341.869 141.13 344.931 150.691 346.607 160.539C348.167 170.438 348.368 180.504 347.204 190.458C344.717 210.646 336.47 229.69 323.449 245.317C316.992 253.127 309.472 259.994 301.108 265.715C292.708 271.29 283.578 275.679 273.978 278.757C254.819 285.018 234.257 285.595 214.777 280.419C224.515 282.123 234.43 282.59 244.285 281.81C246.795 281.512 249.285 281.513 251.584 281.026L258.842 279.79L265.94 277.971C268.299 277.364 270.58 276.428 272.899 275.669C282.04 272.327 290.721 267.839 298.732 262.312C306.707 256.731 313.875 250.078 320.033 242.539C332.593 227.527 340.871 209.407 343.993 190.084C346.917 170.535 344.684 150.561 337.513 132.141Z" fill="white" stroke="white" stroke-linecap="round" stroke-linejoin="round"/>
</g>
<g filter="url(#filter18_d_1405_516)">
<path d="M353.58 184.945C354.771 194.869 354.563 204.912 352.962 214.78C351.234 224.688 348.14 234.31 343.767 243.368C334.863 261.662 320.886 277.012 303.502 287.585C286.197 298.282 266.153 303.714 245.815 303.221C225.661 302.88 206.038 296.709 189.318 285.452C197.972 290.223 207.194 293.88 216.766 296.335C219.22 296.855 221.506 297.638 223.922 297.981L231.308 299.169L238.617 299.68C241.095 299.853 243.594 299.729 245.957 299.77C255.699 299.589 265.379 298.165 274.761 295.535C284.113 292.847 293.052 288.89 301.329 283.773C318.066 273.578 331.736 259.049 340.895 241.723C349.992 224.223 354.365 204.652 353.58 184.945Z" fill="white" stroke="white" stroke-linecap="round" stroke-linejoin="round"/>
</g>
<defs>
<filter id="filter0_d_1405_516" x="161.901" y="238.28" width="194.634" height="90.1318" filterUnits="userSpaceOnUse" color-interpolation-filters="sRGB">
<feFlood flood-opacity="0" result="BackgroundImageFix"/>
<feColorMatrix in="SourceAlpha" type="matrix" values="0 0 0 0 0 0 0 0 0 0 0 0 0 0 0 0 0 0 127 0" result="hardAlpha"/>
<feOffset dx="1" dy="2"/>
<feGaussianBlur stdDeviation="1.45"/>
<feComposite in2="hardAlpha" operator="out"/>
<feColorMatrix type="matrix" values="0 0 0 0 0 0 0 0 0 0 0 0 0 0 0 0 0 0 0.25 0"/>
<feBlend mode="normal" in2="BackgroundImageFix" result="effect1_dropShadow_1405_516"/>
<feBlend mode="normal" in="SourceGraphic" in2="effect1_dropShadow_1405_516" result="shape"/>
</filter>
<filter id="filter1_d_1405_516" x="139.354" y="267.655" width="198.077" height="79.3188" filterUnits="userSpaceOnUse" color-interpolation-filters="sRGB">
<feFlood flood-opacity="0" result="BackgroundImageFix"/>
<feColorMatrix in="SourceAlpha" type="matrix" values="0 0 0 0 0 0 0 0 0 0 0 0 0 0 0 0 0 0 127 0" result="hardAlpha"/>
<feOffset dx="1" dy="2"/>
<feGaussianBlur stdDeviation="1.45"/>
<feComposite in2="hardAlpha" operator="out"/>
<feColorMatrix type="matrix" values="0 0 0 0 0 0 0 0 0 0 0 0 0 0 0 0 0 0 0.25 0"/>
<feBlend mode="normal" in2="BackgroundImageFix" result="effect1_dropShadow_1405_516"/>
<feBlend mode="normal" in="SourceGraphic" in2="effect1_dropShadow_1405_516" result="shape"/>
</filter>
<filter id="filter2_d_1405_516" x="120.367" y="248.398" width="180.781" height="113.812" filterUnits="userSpaceOnUse" color-interpolation-filters="sRGB">
<feFlood flood-opacity="0" result="BackgroundImageFix"/>
<feColorMatrix in="SourceAlpha" type="matrix" values="0 0 0 0 0 0 0 0 0 0 0 0 0 0 0 0 0 0 127 0" result="hardAlpha"/>
<feOffset dx="1" dy="2"/>
<feGaussianBlur stdDeviation="1.45"/>
<feComposite in2="hardAlpha" operator="out"/>
<feColorMatrix type="matrix" values="0 0 0 0 0 0 0 0 0 0 0 0 0 0 0 0 0 0 0.25 0"/>
<feBlend mode="normal" in2="BackgroundImageFix" result="effect1_dropShadow_1405_516"/>
<feBlend mode="normal" in="SourceGraphic" in2="effect1_dropShadow_1405_516" result="shape"/>
</filter>
<filter id="filter3_d_1405_516" x="102.666" y="224.519" width="150.771" height="148.414" filterUnits="userSpaceOnUse" color-interpolation-filters="sRGB">
<feFlood flood-opacity="0" result="BackgroundImageFix"/>
<feColorMatrix in="SourceAlpha" type="matrix" values="0 0 0 0 0 0 0 0 0 0 0 0 0 0 0 0 0 0 127 0" result="hardAlpha"/>
<feOffset dx="1" dy="2"/>
<feGaussianBlur stdDeviation="1.45"/>
<feComposite in2="hardAlpha" operator="out"/>
<feColorMatrix type="matrix" values="0 0 0 0 0 0 0 0 0 0 0 0 0 0 0 0 0 0 0.25 0"/>
<feBlend mode="normal" in2="BackgroundImageFix" result="effect1_dropShadow_1405_516"/>
<feBlend mode="normal" in="SourceGraphic" in2="effect1_dropShadow_1405_516" result="shape"/>
</filter>
<filter id="filter4_d_1405_516" x="83.3812" y="198.882" width="116.189" height="178.864" filterUnits="userSpaceOnUse" color-interpolation-filters="sRGB">
<feFlood flood-opacity="0" result="BackgroundImageFix"/>
<feColorMatrix in="SourceAlpha" type="matrix" values="0 0 0 0 0 0 0 0 0 0 0 0 0 0 0 0 0 0 127 0" result="hardAlpha"/>
<feOffset dx="1" dy="2"/>
<feGaussianBlur stdDeviation="1.45"/>
<feComposite in2="hardAlpha" operator="out"/>
<feColorMatrix type="matrix" values="0 0 0 0 0 0 0 0 0 0 0 0 0 0 0 0 0 0 0.25 0"/>
<feBlend mode="normal" in2="BackgroundImageFix" result="effect1_dropShadow_1405_516"/>
<feBlend mode="normal" in="SourceGraphic" in2="effect1_dropShadow_1405_516" result="shape"/>
</filter>
<filter id="filter5_d_1405_516" x="63.6742" y="174.208" width="81.6479" height="197.574" filterUnits="userSpaceOnUse" color-interpolation-filters="sRGB">
<feFlood flood-opacity="0" result="BackgroundImageFix"/>
<feColorMatrix in="SourceAlpha" type="matrix" values="0 0 0 0 0 0 0 0 0 0 0 0 0 0 0 0 0 0 127 0" result="hardAlpha"/>
<feOffset dx="1" dy="2"/>
<feGaussianBlur stdDeviation="1.45"/>
<feComposite in2="hardAlpha" operator="out"/>
<feColorMatrix type="matrix" values="0 0 0 0 0 0 0 0 0 0 0 0 0 0 0 0 0 0 0.25 0"/>
<feBlend mode="normal" in2="BackgroundImageFix" result="effect1_dropShadow_1405_516"/>
<feBlend mode="normal" in="SourceGraphic" in2="effect1_dropShadow_1405_516" result="shape"/>
</filter>
<filter id="filter6_d_1405_516" x="45.6937" y="152.277" width="87.8305" height="195.906" filterUnits="userSpaceOnUse" color-interpolation-filters="sRGB">
<feFlood flood-opacity="0" result="BackgroundImageFix"/>
<feColorMatrix in="SourceAlpha" type="matrix" values="0 0 0 0 0 0 0 0 0 0 0 0 0 0 0 0 0 0 127 0" result="hardAlpha"/>
<feOffset dx="1" dy="2"/>
<feGaussianBlur stdDeviation="1.45"/>
<feComposite in2="hardAlpha" operator="out"/>
<feColorMatrix type="matrix" values="0 0 0 0 0 0 0 0 0 0 0 0 0 0 0 0 0 0 0.25 0"/>
<feBlend mode="normal" in2="BackgroundImageFix" result="effect1_dropShadow_1405_516"/>
<feBlend mode="normal" in="SourceGraphic" in2="effect1_dropShadow_1405_516" result="shape"/>
</filter>
<filter id="filter7_d_1405_516" x="31.5551" y="134.771" width="122.612" height="173.72" filterUnits="userSpaceOnUse" color-interpolation-filters="sRGB">
<feFlood flood-opacity="0" result="BackgroundImageFix"/>
<feColorMatrix in="SourceAlpha" type="matrix" values="0 0 0 0 0 0 0 0 0 0 0 0 0 0 0 0 0 0 127 0" result="hardAlpha"/>
<feOffset dx="1" dy="2"/>
<feGaussianBlur stdDeviation="1.45"/>
<feComposite in2="hardAlpha" operator="out"/>
<feColorMatrix type="matrix" values="0 0 0 0 0 0 0 0 0 0 0 0 0 0 0 0 0 0 0.25 0"/>
<feBlend mode="normal" in2="BackgroundImageFix" result="effect1_dropShadow_1405_516"/>
<feBlend mode="normal" in="SourceGraphic" in2="effect1_dropShadow_1405_516" result="shape"/>
</filter>
<filter id="filter8_d_1405_516" x="22.1527" y="116.459" width="156.597" height="142.309" filterUnits="userSpaceOnUse" color-interpolation-filters="sRGB">
<feFlood flood-opacity="0" result="BackgroundImageFix"/>
<feColorMatrix in="SourceAlpha" type="matrix" values="0 0 0 0 0 0 0 0 0 0 0 0 0 0 0 0 0 0 127 0" result="hardAlpha"/>
<feOffset dx="1" dy="2"/>
<feGaussianBlur stdDeviation="1.45"/>
<feComposite in2="hardAlpha" operator="out"/>
<feColorMatrix type="matrix" values="0 0 0 0 0 0 0 0 0 0 0 0 0 0 0 0 0 0 0.25 0"/>
<feBlend mode="normal" in2="BackgroundImageFix" result="effect1_dropShadow_1405_516"/>
<feBlend mode="normal" in="SourceGraphic" in2="effect1_dropShadow_1405_516" result="shape"/>
</filter>
<filter id="filter9_d_1405_516" x="19.0746" y="96.7909" width="185.447" height="107.481" filterUnits="userSpaceOnUse" color-interpolation-filters="sRGB">
<feFlood flood-opacity="0" result="BackgroundImageFix"/>
<feColorMatrix in="SourceAlpha" type="matrix" values="0 0 0 0 0 0 0 0 0 0 0 0 0 0 0 0 0 0 127 0" result="hardAlpha"/>
<feOffset dx="1" dy="2"/>
<feGaussianBlur stdDeviation="1.45"/>
<feComposite in2="hardAlpha" operator="out"/>
<feColorMatrix type="matrix" values="0 0 0 0 0 0 0 0 0 0 0 0 0 0 0 0 0 0 0.25 0"/>
<feBlend mode="normal" in2="BackgroundImageFix" result="effect1_dropShadow_1405_516"/>
<feBlend mode="normal" in="SourceGraphic" in2="effect1_dropShadow_1405_516" result="shape"/>
</filter>
<filter id="filter10_d_1405_516" x="29.3285" y="77.3632" width="199.08" height="73.3569" filterUnits="userSpaceOnUse" color-interpolation-filters="sRGB">
<feFlood flood-opacity="0" result="BackgroundImageFix"/>
<feColorMatrix in="SourceAlpha" type="matrix" values="0 0 0 0 0 0 0 0 0 0 0 0 0 0 0 0 0 0 127 0" result="hardAlpha"/>
<feOffset dx="1" dy="2"/>
<feGaussianBlur stdDeviation="1.45"/>
<feComposite in2="hardAlpha" operator="out"/>
<feColorMatrix type="matrix" values="0 0 0 0 0 0 0 0 0 0 0 0 0 0 0 0 0 0 0.25 0"/>
<feBlend mode="normal" in2="BackgroundImageFix" result="effect1_dropShadow_1405_516"/>
<feBlend mode="normal" in="SourceGraphic" in2="effect1_dropShadow_1405_516" result="shape"/>
</filter>
<filter id="filter11_d_1405_516" x="57.5727" y="60.1405" width="191.987" height="96.3964" filterUnits="userSpaceOnUse" color-interpolation-filters="sRGB">
<feFlood flood-opacity="0" result="BackgroundImageFix"/>
<feColorMatrix in="SourceAlpha" type="matrix" values="0 0 0 0 0 0 0 0 0 0 0 0 0 0 0 0 0 0 127 0" result="hardAlpha"/>
<feOffset dx="1" dy="2"/>
<feGaussianBlur stdDeviation="1.45"/>
<feComposite in2="hardAlpha" operator="out"/>
<feColorMatrix type="matrix" values="0 0 0 0 0 0 0 0 0 0 0 0 0 0 0 0 0 0 0.25 0"/>
<feBlend mode="normal" in2="BackgroundImageFix" result="effect1_dropShadow_1405_516"/>
<feBlend mode="normal" in="SourceGraphic" in2="effect1_dropShadow_1405_516" result="shape"/>
</filter>
<filter id="filter12_d_1405_516" x="100.088" y="47.0355" width="166.476" height="131.4" filterUnits="userSpaceOnUse" color-interpolation-filters="sRGB">
<feFlood flood-opacity="0" result="BackgroundImageFix"/>
<feColorMatrix in="SourceAlpha" type="matrix" values="0 0 0 0 0 0 0 0 0 0 0 0 0 0 0 0 0 0 127 0" result="hardAlpha"/>
<feOffset dx="1" dy="2"/>
<feGaussianBlur stdDeviation="1.45"/>
<feComposite in2="hardAlpha" operator="out"/>
<feColorMatrix type="matrix" values="0 0 0 0 0 0 0 0 0 0 0 0 0 0 0 0 0 0 0.25 0"/>
<feBlend mode="normal" in2="BackgroundImageFix" result="effect1_dropShadow_1405_516"/>
<feBlend mode="normal" in="SourceGraphic" in2="effect1_dropShadow_1405_516" result="shape"/>
</filter>
<filter id="filter13_d_1405_516" x="151.651" y="39.1664" width="133.641" height="164.366" filterUnits="userSpaceOnUse" color-interpolation-filters="sRGB">
<feFlood flood-opacity="0" result="BackgroundImageFix"/>
<feColorMatrix in="SourceAlpha" type="matrix" values="0 0 0 0 0 0 0 0 0 0 0 0 0 0 0 0 0 0 127 0" result="hardAlpha"/>
<feOffset dx="1" dy="2"/>
<feGaussianBlur stdDeviation="1.45"/>
<feComposite in2="hardAlpha" operator="out"/>
<feColorMatrix type="matrix" values="0 0 0 0 0 0 0 0 0 0 0 0 0 0 0 0 0 0 0.25 0"/>
<feBlend mode="normal" in2="BackgroundImageFix" result="effect1_dropShadow_1405_516"/>
<feBlend mode="normal" in="SourceGraphic" in2="effect1_dropShadow_1405_516" result="shape"/>
</filter>
<filter id="filter14_d_1405_516" x="206.368" y="38.349" width="98.8959" height="190.761" filterUnits="userSpaceOnUse" color-interpolation-filters="sRGB">
<feFlood flood-opacity="0" result="BackgroundImageFix"/>
<feColorMatrix in="SourceAlpha" type="matrix" values="0 0 0 0 0 0 0 0 0 0 0 0 0 0 0 0 0 0 127 0" result="hardAlpha"/>
<feOffset dx="1" dy="2"/>
<feGaussianBlur stdDeviation="1.45"/>
<feComposite in2="hardAlpha" operator="out"/>
<feColorMatrix type="matrix" values="0 0 0 0 0 0 0 0 0 0 0 0 0 0 0 0 0 0 0.25 0"/>
<feBlend mode="normal" in2="BackgroundImageFix" result="effect1_dropShadow_1405_516"/>
<feBlend mode="normal" in="SourceGraphic" in2="effect1_dropShadow_1405_516" result="shape"/>
</filter>
<filter id="filter15_d_1405_516" x="253.065" y="53.0448" width="71.0981" height="199.113" filterUnits="userSpaceOnUse" color-interpolation-filters="sRGB">
<feFlood flood-opacity="0" result="BackgroundImageFix"/>
<feColorMatrix in="SourceAlpha" type="matrix" values="0 0 0 0 0 0 0 0 0 0 0 0 0 0 0 0 0 0 127 0" result="hardAlpha"/>
<feOffset dx="1" dy="2"/>
<feGaussianBlur stdDeviation="1.45"/>
<feComposite in2="hardAlpha" operator="out"/>
<feColorMatrix type="matrix" values="0 0 0 0 0 0 0 0 0 0 0 0 0 0 0 0 0 0 0.25 0"/>
<feBlend mode="normal" in2="BackgroundImageFix" result="effect1_dropShadow_1405_516"/>
<feBlend mode="normal" in="SourceGraphic" in2="effect1_dropShadow_1405_516" result="shape"/>
</filter>
<filter id="filter16_d_1405_516" x="235.288" y="85.4794" width="105.244" height="186.965" filterUnits="userSpaceOnUse" color-interpolation-filters="sRGB">
<feFlood flood-opacity="0" result="BackgroundImageFix"/>
<feColorMatrix in="SourceAlpha" type="matrix" values="0 0 0 0 0 0 0 0 0 0 0 0 0 0 0 0 0 0 127 0" result="hardAlpha"/>
<feOffset dx="1" dy="2"/>
<feGaussianBlur stdDeviation="1.45"/>
<feComposite in2="hardAlpha" operator="out"/>
<feColorMatrix type="matrix" values="0 0 0 0 0 0 0 0 0 0 0 0 0 0 0 0 0 0 0.25 0"/>
<feBlend mode="normal" in2="BackgroundImageFix" result="effect1_dropShadow_1405_516"/>
<feBlend mode="normal" in="SourceGraphic" in2="effect1_dropShadow_1405_516" result="shape"/>
</filter>
<filter id="filter17_d_1405_516" x="212.377" y="130.741" width="139.972" height="158.577" filterUnits="userSpaceOnUse" color-interpolation-filters="sRGB">
<feFlood flood-opacity="0" result="BackgroundImageFix"/>
<feColorMatrix in="SourceAlpha" type="matrix" values="0 0 0 0 0 0 0 0 0 0 0 0 0 0 0 0 0 0 127 0" result="hardAlpha"/>
<feOffset dx="1" dy="2"/>
<feGaussianBlur stdDeviation="1.45"/>
<feComposite in2="hardAlpha" operator="out"/>
<feColorMatrix type="matrix" values="0 0 0 0 0 0 0 0 0 0 0 0 0 0 0 0 0 0 0.25 0"/>
<feBlend mode="normal" in2="BackgroundImageFix" result="effect1_dropShadow_1405_516"/>
<feBlend mode="normal" in="SourceGraphic" in2="effect1_dropShadow_1405_516" result="shape"/>
</filter>
<filter id="filter18_d_1405_516" x="186.918" y="183.545" width="171.823" height="125.107" filterUnits="userSpaceOnUse" color-interpolation-filters="sRGB">
<feFlood flood-opacity="0" result="BackgroundImageFix"/>
<feColorMatrix in="SourceAlpha" type="matrix" values="0 0 0 0 0 0 0 0 0 0 0 0 0 0 0 0 0 0 127 0" result="hardAlpha"/>
<feOffset dx="1" dy="2"/>
<feGaussianBlur stdDeviation="1.45"/>
<feComposite in2="hardAlpha" operator="out"/>
<feColorMatrix type="matrix" values="0 0 0 0 0 0 0 0 0 0 0 0 0 0 0 0 0 0 0.25 0"/>
<feBlend mode="normal" in2="BackgroundImageFix" result="effect1_dropShadow_1405_516"/>
<feBlend mode="normal" in="SourceGraphic" in2="effect1_dropShadow_1405_516" result="shape"/>
</filter>
</defs>
</svg>
